<svg width="29" height="29" viewBox="0 0 29 29" fill="none" xmlns="http://www.w3.org/2000/svg">
<path d="M12.75 19.1665C12.75 18.2 13.5335 17.4165 14.5 17.4165C15.4665 17.4165 16.25 18.2 16.25 19.1665C16.25 20.133 15.4665 20.9165 14.5 20.9165C13.5335 20.9165 12.75 20.133 12.75 19.1665Z" fill="white" fill-opacity="0.65"/>
<path fill-rule="evenodd" clip-rule="evenodd" d="M9.39212 12.8633L9.02411 9.55117C8.97693 9.12652 8.97693 8.69796 9.02411 8.27332L9.05067 8.03427C9.3324 5.49865 11.3258 3.49239 13.8596 3.19429C14.2852 3.14422 14.7152 3.14422 15.1408 3.19429C17.6746 3.49239 19.6679 5.49866 19.9497 8.03428L19.9762 8.27332C20.0234 8.69796 20.0234 9.12652 19.9762 9.55116L19.6082 12.8633L20.4092 12.9272C21.6724 13.0281 22.7038 13.9777 22.9087 15.2282C23.3357 17.8364 23.3357 20.4968 22.9087 23.1051C22.7038 24.3556 21.6724 25.3052 20.4092 25.406L18.6638 25.5454C15.8925 25.7666 13.108 25.7666 10.3367 25.5454L8.5912 25.406C7.32802 25.3052 6.29657 24.3556 6.0918 23.1051C5.66471 20.4968 5.66471 17.8364 6.0918 15.2282C6.29657 13.9777 7.32802 13.0281 8.5912 12.9272L9.39212 12.8633ZM14.064 4.93231C14.3538 4.89822 14.6466 4.89822 14.9363 4.93231C16.6614 5.13525 18.0185 6.5012 18.2104 8.22753L18.2369 8.46658C18.2698 8.76277 18.2698 9.0617 18.2369 9.35791L17.8623 12.7301C15.6232 12.5859 13.3772 12.5859 11.1381 12.7301L10.7634 9.35791C10.7305 9.0617 10.7305 8.76277 10.7634 8.46658L10.79 8.22753C10.9818 6.5012 12.3389 5.13525 14.064 4.93231ZM18.5245 14.5323C15.8459 14.3186 13.1546 14.3186 10.476 14.5323L8.73047 14.6717C8.26972 14.7085 7.89349 15.0548 7.8188 15.511C7.42238 17.932 7.42238 20.4013 7.8188 22.8223C7.89349 23.2784 8.26972 23.6248 8.73047 23.6616L10.476 23.8009C13.1546 24.0147 15.8459 24.0147 18.5245 23.8009L20.2699 23.6616C20.7308 23.6248 21.1069 23.2784 21.1817 22.8223C21.5781 20.4013 21.5781 17.932 21.1817 15.511C21.1069 15.0548 20.7308 14.7085 20.2699 14.6717L18.5245 14.5323Z" fill="white" fill-opacity="0.65"/>
</svg>
